<svg id="Layer_1" data-name="Layer 1" xmlns="http://www.w3.org/2000/svg" viewBox="0 0 37.47 37.47"><defs><style>.cls-1{fill:#175cd3;}.cls-2{fill:#1570ef;}.cls-2,.cls-3{fill-rule:evenodd;}.cls-3{fill:#2e90fa;}</style></defs><title>favicon</title><path class="cls-1" d="M352.43,304.29a13.38,13.38,0,0,0,13.38-13.38,14,14,0,0,0-.22-2.45A13.37,13.37,0,0,0,350,304.07,13.14,13.14,0,0,0,352.43,304.29Z" transform="translate(-339.04 -277.53)"/><path class="cls-2" d="M350,304.07a13.38,13.38,0,1,1,15.61-15.61A13.37,13.37,0,0,0,350,304.07Z" transform="translate(-339.04 -277.53)"/><path class="cls-3" d="M352.43,304.29a13.38,13.38,0,0,0,13.38-13.38,14,14,0,0,0-.22-2.45A13.38,13.38,0,1,1,350,304.07,13.14,13.14,0,0,0,352.43,304.29Z" transform="translate(-339.04 -277.53)"/></svg>